# xmcd
#
# Track frame offsets: 
#        150
#        21589
#        41479
#        60357
#        78334
#        95737
#        116355
#        133770
#        154049
#        173840
#        195858
#
# Disc length: 2898 seconds
#
# Revision: 11
# Processed by: cddbd v1.5.2PL0 Copyright (c) Steve Scherf et al.
# Submitted via: ExactAudioCopyFreeDBPlugin 1.0
#
DISCID=850b500b
DTITLE=Gregory Charles - I Think Of You
DYEAR=2006
DGENRE=Jazz
TTITLE0=I Think Of You
TTITLE1=Our House
TTITLE2=I Put My Trust In You
TTITLE3=Unlabel'ble
TTITLE4=Promise That You Love Me
TTITLE5=No Love
TTITLE6=Your Love Will Lead Me Back To You
TTITLE7=You Are Near
TTITLE8='Til The Day I Die
TTITLE9=Life Goes On
TTITLE10=Sólo piensio en ti (Prima)
EXTD=YEAR: 2006
EXTT0=
EXTT1=
EXTT2=
EXTT3=
EXTT4=
EXTT5=
EXTT6=
EXTT7=
EXTT8=
EXTT9=
EXTT10=
PLAYORDER=
